<svg width="440" height="409" viewBox="0 0 440 409" fill="none" xmlns="http://www.w3.org/2000/svg">
<path d="M435.429 161.361C429.91 136.646 421.097 112.783 409.222 90.4156C385.199 42.0916 344.718 14.5447 292.362 6.87265C260.839 2.22425 228.753 -3.99035 196.389 3.45855L196.444 0.267154C181.772 2.56405 166.374 2.84135 152.546 7.60305V7.59915C138.437 12.728 125.214 20.0211 113.351 29.2161C72.3117 60.0131 38.9637 99.8961 15.9167 145.736C-3.00927 183.197 -3.51326 222.392 6.34254 261.986V261.982C9.39724 275.033 15.1159 287.31 23.1435 298.044C42.7955 322.962 63.7375 346.872 85.2415 370.388C113.969 401.353 150.308 412.384 191.972 407.904C251.941 401.408 306.482 378.955 357.602 348.716C414.825 314.673 451.668 243.956 435.43 161.356L435.429 161.361ZM326.179 347.991C301.71 359.19 276.96 369.436 251.761 378.62H251.765C224.831 388.241 196.359 392.815 167.773 392.116C147.699 392.534 128.164 385.604 112.839 372.628C101.089 362.491 89.8739 351.741 79.2449 340.433C66.0849 326.265 53.991 311.148 41.393 296.535C30.725 284.328 23.3969 269.57 20.1119 253.699C12.9439 219.261 13.5611 185.554 29.6314 152.909C50.0064 112.487 78.6194 76.7796 113.623 48.0886C137.982 27.7057 164.689 11.9166 200.416 18.4676C230.037 12.0301 261.057 18.6942 291.631 23.2294C336.244 28.3544 375.127 55.9754 394.661 96.4134C403.587 114.155 410.934 132.647 416.614 151.679C428.337 189.796 425.595 230.898 408.907 267.119C392.223 303.342 362.77 332.139 326.18 347.998L326.179 347.991Z" fill="black"/>
<path d="M354.799 222.331C346.061 219.741 337.178 217.647 328.201 216.061C310.228 213.092 292.197 210.463 274.166 207.885C259.385 205.702 244.658 203.405 229.873 201.167C196.275 200.44 166.209 212.366 135.635 222.054C119.397 227.651 103.608 234.316 87.873 241.148C84.7597 242.706 82.6503 245.745 82.2753 249.21C83.7323 252.292 86.6737 254.405 90.0565 254.812C95.8221 254.081 101.467 252.612 106.858 250.441C131.608 241.874 156.131 232.468 181.163 224.629C209.944 215.558 239.284 216.734 268.628 222.558C278.092 224.406 287.667 225.804 297.128 227.484C313.925 230.453 330.726 233.531 347.523 236.386C351.644 237.382 355.886 237.781 360.121 237.562C362.32 237.386 364.21 235.933 364.945 233.855C365.683 231.777 365.132 229.457 363.535 227.933C361.101 225.41 358.109 223.492 354.8 222.332L354.799 222.331Z" fill="black"/>
<path d="M138.159 141.371C140.323 140.543 142.331 139.351 144.093 137.843C149.1 132.367 153.811 126.628 158.202 120.652C161.225 116.566 162.85 110.91 157.811 108.054C154.452 106.152 146.948 105.757 144.987 108.054H144.991C138.78 115.164 133.616 123.116 129.647 131.683C127.405 136.5 131.381 140.472 138.159 141.371L138.159 141.371Z" fill="black"/>
<path d="M257.139 125.131C258.194 124.967 259.241 124.74 260.272 124.459C267.272 121.939 276.174 106.932 273.432 100.83V100.826C271.569 97.8532 268.416 95.9275 264.92 95.6189C257.416 95.1697 248.123 105.42 247.17 113.705C246.518 116.627 247.295 119.685 249.264 121.939C251.233 124.197 254.155 125.381 257.139 125.131L257.139 125.131Z" fill="black"/>
</svg>
